<?xml version="1.0" encoding="utf-8"?>
<!-- Generator: Adobe Illustrator 26.0.3, SVG Export Plug-In . SVG Version: 6.00 Build 0)  -->
<svg version="1.1" id="Layer_1" xmlns="http://www.w3.org/2000/svg" xmlns:xlink="http://www.w3.org/1999/xlink" x="0px" y="0px"
	 viewBox="0 0 72.25 76.1" style="enable-background:new 0 0 72.25 76.1;" xml:space="preserve">
<style type="text/css">
	.st0{fill:#551012;}
	.st1{font-family:'Fino-Regular';}
	.st2{font-size:17.3908px;}
	.st3{fill:#CAA867;}
	.st4{fill:none;stroke:#551012;stroke-width:0.5;stroke-miterlimit:10;}
	.st5{fill:none;stroke:#CAA867;stroke-width:0.5;stroke-miterlimit:10;}
	.st6{fill:#E22E2A;}
	.st7{fill:#971913;}
	.st8{fill:#FFFFFF;}
	.st9{fill:#4FB452;}
</style>
<text transform="matrix(1.3605 0 0 1 -1.665354e-04 51.9627)" class="st0 st1 st2">kitchen</text>
<g>
	<text transform="matrix(1.3605 0 0 1 19.648 38.3833)" class="st3 st1 st2">the</text>
</g>
<g>
	<path class="st4" d="M15.88,54.18c0,11.18,9.06,21.67,20.24,21.67h0c11.18,0,20.24-9.06,20.24-20.24v-1.43"/>
	<path class="st4" d="M15.88,24.82v-4.33c0-11.18,9.06-20.24,20.24-20.24h0c11.18,0,20.24,9.06,20.24,20.24l0,4.33"/>
</g>
<g>
	<g>
		<g>
			<path class="st5" d="M20.12,53.84c0,8.84,7.17,16.32,16,16.32h0c8.84,0,16-7.17,16-16v-0.28"/>
		</g>
		<g>
			<path class="st5" d="M20.12,24.98v-2.64c0-9.36,7.17-16.94,16-16.94h0c8.84,0,16,7.59,16,16.94v2.64"/>
		</g>
	</g>
</g>
<g id="XMLID_00000043418132949293144940000001719892398765674650_">
	<path id="XMLID_00000016762738941076517970000005246709286417767055_" class="st6" d="M17.96,36.44c-0.04-0.95-0.78-1.83-1.72-2.02
		c-0.41-0.08-0.84-0.03-1.23,0.13c0,0,0,0,0,0c-0.24,0.1-0.52,0.1-0.76,0c0,0,0,0,0,0c-0.38-0.16-0.82-0.22-1.23-0.13
		c-0.93,0.19-1.68,1.07-1.72,2.02c-0.03,0.89,0.5,1.73,1.23,2.23c0.61,0.43,1.36,0.63,2.1,0.62c0.74,0.01,1.49-0.19,2.1-0.62
		C17.46,38.16,17.99,37.32,17.96,36.44z"/>
	<g id="XMLID_00000127731385915511146110000016685373879066217404_">
		<path id="XMLID_00000019664567674429214530000004474290946692445325_" class="st7" d="M15.34,38.92
			c-0.69,0.01-1.38-0.18-1.94-0.57c-0.67-0.47-1.17-1.25-1.14-2.07c0.03-0.87,0.71-1.68,1.56-1.86c-0.26-0.05-0.53-0.06-0.8,0
			c-0.93,0.19-1.68,1.07-1.72,2.02c-0.03,0.89,0.5,1.73,1.23,2.23c0.61,0.43,1.36,0.63,2.1,0.62c0.74,0.01,1.49-0.19,2.1-0.62
			c0.02-0.01,0.04-0.03,0.06-0.04C16.34,38.83,15.84,38.93,15.34,38.92z"/>
	</g>
	<g id="XMLID_00000032608019892099141370000014490709147590440883_">
		<path id="XMLID_00000163039777792609643940000000195048908551676062_" class="st8" d="M16.89,35.47c0.38,0.45,0.61,1,0.63,1.55
			c0,0.08,0,0.16,0,0.23c0,0.03,0.04,0.04,0.05,0.01c0.1-0.26,0.15-0.53,0.14-0.79c-0.02-0.4-0.18-0.81-0.46-1.14
			c-0.28-0.33-0.66-0.56-1.05-0.64c-0.11-0.02-0.22-0.03-0.34-0.03c0,0,0,0,0,0c-0.03,0-0.04,0.04-0.01,0.05
			C16.24,34.87,16.6,35.13,16.89,35.47z"/>
	</g>
	<path id="XMLID_00000158020272652613324340000007760562947632544409_" class="st9" d="M14.99,34.36c0.57-0.34,0.84-0.4,1.25-0.41
		c-0.65-0.42-1.24,0.22-1.43,0.31c0.12-0.28,0.34-0.54,0.64-0.59c-0.19-0.04-0.39,0-0.56,0.1c-0.17,0.1-0.31,0.26-0.37,0.44
		c-0.04-0.35-0.24-0.66-0.54-0.85c-0.03,0.07-0.14,0.06-0.16,0.13c0.22,0.1,0.56,0.49,0.58,0.79c-0.11-0.22-0.54-0.51-1.05-0.37
		c0.34,0.07,0.66,0.28,0.91,0.44C14.45,34.49,14.73,34.52,14.99,34.36z"/>
</g>
</svg>
